<svg width="134" height="164" viewBox="0 0 134 164" fill="none" xmlns="http://www.w3.org/2000/svg">
<path d="M132.31 132.93C132.31 132.93 99.2704 148.96 69.8504 156.33Z" fill="white"/>
<path d="M132.31 132.93C132.31 132.93 99.2704 148.96 69.8504 156.33" stroke="#812BEA" stroke-width="2" stroke-miterlimit="10" stroke-linecap="round" stroke-linejoin="round"/>
<path d="M81.7104 160.55C80.3804 161.1 79.0504 161.63 77.7304 162.12Z" fill="white"/>
<path d="M81.7104 160.55C80.3804 161.1 79.0504 161.63 77.7304 162.12" stroke="#812BEA" stroke-width="2" stroke-miterlimit="10" stroke-linecap="round" stroke-linejoin="round"/>
<path d="M116.18 142.18C108.51 147 95.9904 154.41 83.5804 159.76Z" fill="white"/>
<path d="M116.18 142.18C108.51 147 95.9904 154.41 83.5804 159.76" stroke="#812BEA" stroke-width="2" stroke-miterlimit="10" stroke-linecap="round" stroke-linejoin="round"/>
<path d="M123.68 137.3C123.68 137.3 121.77 138.62 118.54 140.69Z" fill="white"/>
<path d="M123.68 137.3C123.68 137.3 121.77 138.62 118.54 140.69" stroke="#812BEA" stroke-width="2" stroke-miterlimit="10" stroke-linecap="round" stroke-linejoin="round"/>
<path d="M22.9904 66.35C22.9904 66.35 35.4604 61.99 45.4604 59.78C55.4604 57.57 65.0404 53.8 69.3904 47.27C73.7304 40.74 82.2204 26.78 81.0504 19.9C79.8804 13.02 72.1904 10.64 60.2704 19.88C48.3504 29.12 33.0904 49.34 27.6304 56.29C22.1804 63.24 20.5704 65.86 22.9904 66.35Z" fill="white" stroke="#812BEA" stroke-width="2" stroke-miterlimit="10" stroke-linecap="round" stroke-linejoin="round"/>
<path d="M59.7204 24.9499C59.7204 24.9499 52.5204 30.7599 44.4504 35.6599C36.3804 40.5599 42.3104 52.19 51.1304 53.49C59.9404 54.79 62.0304 50.42 64.2004 42.29C66.3704 34.16 66.8404 22.9 64.4004 23.29C61.9604 23.67 59.7204 24.9499 59.7204 24.9499Z" fill="white" stroke="#812BEA" stroke-width="2" stroke-miterlimit="10" stroke-linecap="round" stroke-linejoin="round"/>
<path d="M63.6804 35.87C63.6804 35.87 61.8604 43.12 58.7804 47.7C55.7004 52.28 52.3304 54.52 40.0004 57.23C27.6704 59.94 26.0004 60.57 24.8404 68.17C23.6804 75.77 29.8104 113.04 29.8104 113.04L32.2104 139.29C32.2104 139.29 46.3604 143.91 63.2604 144.29C80.1604 144.67 92.8204 141.96 93.8204 141.65C94.8204 141.34 118.52 134.24 120.54 132.63C122.57 131.02 126.62 127.46 126.62 127.46C126.62 127.46 112.52 105.6 109.73 96.58C106.95 87.57 101.69 70.54 96.5604 62.8C91.4304 55.06 81.5604 51.53 79.6104 49.82C77.6604 48.11 70.2104 40.33 68.9404 37.65C67.6704 34.97 63.6804 35.87 63.6804 35.87Z" fill="white" stroke="#812BEA" stroke-width="2" stroke-miterlimit="10" stroke-linecap="round" stroke-linejoin="round"/>
<path d="M61.7904 44.57C61.7904 44.57 62.5204 53.13 64.6804 59.88C66.8404 66.63 71.1704 69.26 71.1704 69.26L76.5704 65.22C76.5704 65.22 73.7104 58.92 69.9204 52.6C66.1304 46.28 64.1904 42.28 64.1904 42.28C64.1904 42.28 61.6204 42.03 61.7904 44.57Z" fill="white" stroke="#812BEA" stroke-width="2" stroke-miterlimit="10" stroke-linecap="round" stroke-linejoin="round"/>
<path d="M96.6204 89.88C96.6204 89.88 100.92 96.13 101.07 101.35C101.22 106.56 91.5804 122.93 84.5804 124.43C77.5804 125.93 70.9204 112.52 74.1304 102.32C77.3404 92.12 90.8504 82.7 96.6204 89.88Z" fill="white" stroke="#812BEA" stroke-width="2" stroke-miterlimit="10" stroke-linecap="round" stroke-linejoin="round"/>
<path d="M80.8504 101.35C80.8504 101.35 86.7504 95.48 90.9704 93.03C95.1804 90.58 99.3304 90.91 99.3304 90.91L100.77 93.69L107.36 93.4C107.36 93.4 101.03 87.02 95.2804 85.97C89.5304 84.92 84.9804 92.21 84.0204 93.8C83.0704 95.39 80.8504 101.35 80.8504 101.35Z" fill="white" stroke="#812BEA" stroke-width="2" stroke-miterlimit="10" stroke-linecap="round" stroke-linejoin="round"/>
<path d="M55.9104 131.43C67.1004 120.41 81.1104 128.8 81.1104 128.8L43.1804 56.6C52.0704 53.96 45.2604 56.73 37.2504 57.44C26.1504 58.42 17.5304 67.67 18.1104 69.12C20.8704 75.98 34.2904 125.82 34.7204 128.48C37.3104 125.72 50.2604 137 55.9104 131.43Z" fill="white" stroke="#812BEA" stroke-width="2" stroke-miterlimit="10" stroke-linecap="round" stroke-linejoin="round"/>
<path d="M26.4704 113.95C26.4704 113.95 41.9804 87.44 55.8204 76.47C69.6604 65.5 87.8004 54.64 87.8004 54.64L97.9704 59.51C97.9704 59.51 105.12 80.89 106.07 82.9C107.02 84.91 108.85 95.56 108.85 95.56C108.85 95.56 102.18 99.93 97.1604 99.95C93.1804 99.96 104.58 117.28 100.83 122.17C97.0804 127.06 71.4904 117.28 64.4004 123.09C57.3104 128.9 42.6304 132.88 42.6304 132.88C42.6304 132.88 28.5804 123.62 26.3104 121.24C24.0404 118.87 22.4204 117.18 22.4204 117.18L26.4704 113.95Z" fill="white" stroke="#812BEA" stroke-width="2" stroke-miterlimit="10"/>
<path d="M28.0604 122.74C30.6804 118.38 41.1404 101.44 52.9304 88.55C66.5804 73.64 80.0504 66.64 84.8904 62.63C88.6504 59.51 94.2404 60.27 98.8904 62.3C98.3204 60.6 97.9504 59.51 97.9504 59.51L88.7504 55.1L86.9804 55.13C83.3204 57.36 67.9104 66.88 55.8004 76.48C41.9604 87.45 26.4504 113.96 26.4504 113.96L22.4004 117.19C22.4004 117.19 24.0204 118.88 26.2904 121.25C26.6504 121.6 27.2704 122.12 28.0604 122.74Z" fill="white" stroke="#812BEA" stroke-width="2" stroke-miterlimit="10" stroke-linecap="round" stroke-linejoin="round"/>
<path d="M94.3204 73.21C96.1204 77.45 97.8004 81.61 98.0504 82.8Z" fill="white"/>
<path d="M94.3204 73.21C96.1204 77.45 97.8004 81.61 98.0504 82.8" stroke="#812BEA" stroke-width="2" stroke-miterlimit="10" stroke-linecap="round" stroke-linejoin="round"/>
<path d="M89.6704 62.4999C89.6704 62.4999 91.5204 66.6699 93.4804 71.2499Z" fill="white"/>
<path d="M89.6704 62.4999C89.6704 62.4999 91.5204 66.6699 93.4804 71.2499" stroke="#812BEA" stroke-width="2" stroke-miterlimit="10" stroke-linecap="round" stroke-linejoin="round"/>
<path d="M90.3404 80.52C90.4104 81.84 90.4504 82.94 90.4304 83.65Z" fill="white"/>
<path d="M90.3404 80.52C90.4104 81.84 90.4504 82.94 90.4304 83.65" stroke="#812BEA" stroke-width="2" stroke-miterlimit="10" stroke-linecap="round" stroke-linejoin="round"/>
<path d="M89.0204 64.1299C89.0204 64.1299 89.8004 72.2699 90.2004 78.2599Z" fill="white"/>
<path d="M89.0204 64.1299C89.0204 64.1299 89.8004 72.2699 90.2004 78.2599" stroke="#812BEA" stroke-width="2" stroke-miterlimit="10" stroke-linecap="round" stroke-linejoin="round"/>
<path d="M101.75 41.0599C101.75 41.0599 97.4204 47.59 96.1104 51.4C94.8004 55.21 91.7504 59.15 87.6704 62.03C83.5904 64.91 78.8304 67.07 73.6304 65.91C68.4204 64.75 64.6604 53.5 63.5004 50.68C62.3404 47.86 61.0604 42.77 61.1604 38.42C61.2604 34.06 62.4404 27.98 64.9304 25.77C67.4204 23.56 82.9904 21.8099 92.0604 21.8399C101.13 21.8699 102.45 25.39 102.74 27.83C103.03 30.27 102.49 38.9799 101.75 41.0599Z" fill="white" stroke="#812BEA" stroke-width="2" stroke-miterlimit="10" stroke-linecap="round" stroke-linejoin="round"/>
<path d="M100.44 13.64C100.44 13.64 99.9804 26.54 97.6304 30.15C95.2804 33.76 89.3104 35.37 83.0304 35.41C76.7504 35.44 65.1504 31.52 65.1504 31.52C65.1504 31.52 63.9104 32.54 62.7004 31.81C61.4904 31.09 59.7804 29.83 59.7804 29.83C59.7804 29.83 58.4504 26.66 58.1204 26.13C57.7804 25.6 58.9904 18.47 71.1504 12.81C83.3104 7.14995 93.4204 7.54996 95.8504 8.29996C98.2704 9.05996 100.44 13.64 100.44 13.64Z" fill="white" stroke="#812BEA" stroke-width="2" stroke-miterlimit="10" stroke-linecap="round" stroke-linejoin="round"/>
<path d="M99.3804 13.97C99.3804 13.97 99.9704 26.72 98.2604 32.79C96.5604 38.86 99.0904 42.3999 100.29 43.4799C101.49 44.55 105.87 43.78 107.01 39.27C108.16 34.76 108.39 24.12 106.23 19.36C104.07 14.6 101.17 11.5699 100.29 11.7299C99.4304 11.8699 99.3804 13.97 99.3804 13.97Z" fill="white" stroke="#812BEA" stroke-width="2" stroke-miterlimit="10" stroke-linecap="round" stroke-linejoin="round"/>
<path d="M64.2104 34.64C64.2104 34.64 63.6604 28.17 61.0404 27.94C58.4304 27.71 57.6004 33.62 58.2204 36.95C58.8404 40.28 62.6804 40.54 62.6804 40.54" fill="white"/>
<path d="M64.2104 34.64C64.2104 34.64 63.6604 28.17 61.0404 27.94C58.4304 27.71 57.6004 33.62 58.2204 36.95C58.8404 40.28 62.6804 40.54 62.6804 40.54" stroke="#812BEA" stroke-width="2" stroke-miterlimit="10" stroke-linecap="round" stroke-linejoin="round"/>
<path d="M58.8304 120.51C58.8304 120.51 51.7804 114.61 48.0604 115.55C44.3504 116.49 39.0504 123.97 39.0304 124.99C39.0104 126.02 42.4804 126.71 49.0404 126.85C55.6004 127 64.2604 125.14 64.9104 123.92C65.5604 122.71 58.8304 120.51 58.8304 120.51Z" fill="white" stroke="#812BEA" stroke-width="2" stroke-miterlimit="10" stroke-linecap="round" stroke-linejoin="round"/>
<path d="M104.66 99.16C104.66 99.16 102.25 96.64 96.8704 98.78C91.4904 100.92 89.9704 104.37 89.5504 104.98C89.1304 105.59 84.6204 105.28 82.3004 108.1C79.9804 110.92 80.3004 115.03 81.9004 116.92C83.5004 118.8 84.2904 120.05 84.2904 120.05C84.2904 120.05 82.8204 121.45 85.2304 123.97C87.6404 126.49 105.88 127.51 111.34 121.68C116.81 115.85 116.09 110.91 112.93 105.71C109.76 100.5 104.66 99.16 104.66 99.16Z" fill="white" stroke="#812BEA" stroke-width="2" stroke-miterlimit="10" stroke-linecap="round" stroke-linejoin="round"/>
<path d="M103.13 94.2C103.13 94.2 101.66 95.6 101.8 98.48C101.94 101.36 103.75 103.24 103.75 103.24C103.75 103.24 99.4804 101.3 99.4504 102.94C99.4104 104.58 99.7904 106.23 99.7904 106.23C99.7904 106.23 96.1704 103.07 96.5404 104.93C96.9104 106.79 96.9104 106.79 96.9104 106.79C96.9104 106.79 94.0404 106.52 93.8104 107.95C93.5704 109.38 94.1704 110.22 94.1704 110.22C94.1704 110.22 95.5804 111.48 94.9204 113.52C94.2604 115.56 92.6004 116.34 91.7704 116.53C90.9404 116.72 89.6504 119.77 89.8304 120.8C90.0104 121.83 96.8804 126.91 99.5404 126.97C102.21 127.03 105.06 127.71 109.82 126.17C114.57 124.63 118.45 116.51 118.56 111.59C118.67 106.67 115.47 102.9 112.84 101C110.21 99.09 108.82 97.22 108.86 95.58C108.9 93.94 106.66 93.07 106.62 94.91C106.58 96.76 106.56 97.58 106.56 97.58C106.56 97.58 104.17 93.6 103.13 94.2Z" fill="white" stroke="#812BEA" stroke-width="2" stroke-miterlimit="10" stroke-linecap="round" stroke-linejoin="round"/>
<path d="M94.7204 112.27C94.7204 112.27 94.3904 108.57 92.9304 109.77C91.4704 110.97 92.6604 112.64 90.9904 113.83C89.3204 115.02 86.6304 115.99 88.2504 117.26C89.8604 118.53 94.6404 115.97 94.7204 112.27Z" fill="white" stroke="#812BEA" stroke-width="2" stroke-miterlimit="10" stroke-linecap="round" stroke-linejoin="round"/>
<path d="M112.54 123.34C112.54 123.34 118.7 123.27 118.17 128.6C117.64 133.92 115.18 133.87 107.14 135.33C99.1004 136.79 93.9804 136.68 86.5604 137.95C79.1404 139.22 70.0904 140.25 62.9104 140.09C55.7304 139.93 43.9804 133.31 43.4104 130.83C42.8504 128.35 43.9404 125.51 48.4904 123.76C53.0404 122.01 60.8004 123.83 69.3804 125.87C77.9504 127.91 83.4704 128.85 89.2504 127.54C95.0304 126.24 108.43 123.25 112.54 123.34Z" fill="white" stroke="#812BEA" stroke-width="2" stroke-miterlimit="10" stroke-linecap="round" stroke-linejoin="round"/>
<path d="M88.2904 134.09C88.2904 134.09 96.1604 130.98 97.9104 125.89C99.6604 120.8 94.2204 116.57 90.7104 117.32C87.2004 118.06 84.5004 119.64 82.8404 120.63C81.1804 121.62 79.1304 121.57 79.1304 121.57C79.1304 121.57 70.7704 119.33 68.3004 119.28C65.8404 119.23 63.8104 118.36 62.7904 117.93C61.7704 117.5 59.5304 116.83 57.8604 118.03C56.1904 119.22 55.3404 120.44 55.9404 121.48C56.5304 122.52 57.1704 121.71 57.1704 121.71C57.1704 121.71 57.7604 122.75 58.7704 123.39C59.7804 124.03 61.8404 123.87 61.8404 123.87C61.8404 123.87 65.4504 127.64 70.7304 130.02C76.0104 132.39 81.7204 134.37 83.1504 134.4C84.5804 134.43 88.2904 134.09 88.2904 134.09Z" fill="white" stroke="#812BEA" stroke-width="2" stroke-miterlimit="10" stroke-linecap="round" stroke-linejoin="round"/>
<path d="M73.2104 140.02C73.2404 138.71 70.9504 138.66 68.5204 137.29C67.0104 136.44 62.6904 134.59 59.6204 133.3C60.5204 133.65 61.3504 133.96 61.7104 134.03C62.6904 134.22 64.3304 133.92 65.6604 133.3C66.9804 132.67 66.0104 132.16 65.2004 131.98C64.3804 131.8 56.8004 126.55 55.8304 126.04C54.8604 125.53 43.0704 125.27 43.0704 125.27C43.0704 125.27 41.1004 125.39 40.1504 124.06C39.2004 122.73 19.7604 105.42 19.7604 105.42L26.0304 96.8399L18.7604 70.9999C12.8004 81.6999 0.920402 106.01 1.0004 108.94C1.0904 112.38 8.99039 118.13 13.9904 121.68C18.9904 125.23 38.5504 136.97 38.5504 136.97C38.5504 136.97 41.1204 139.48 41.6004 139.99C42.0804 140.49 47.0604 145.19 49.9704 146.57C52.8904 147.95 55.6404 149.65 56.7804 149.83C57.9204 150.02 61.3704 149.77 61.3704 149.77C61.3704 149.77 63.1604 150.3 63.8204 150.32C64.4804 150.33 65.3104 149.7 65.6604 148.56C66.0104 147.42 56.1404 141.96 56.1404 141.96C56.1404 141.96 59.0604 143.34 60.8304 144.52C62.6104 145.71 67.6304 148.11 68.4504 148.13C69.2704 148.15 70.9304 147.2 70.3004 146.2C69.6704 145.2 59.9604 139.74 59.0104 138.08C59.0104 138.08 68.9204 141.74 69.7404 141.76C70.5504 141.77 73.1804 141.33 73.2104 140.02Z" fill="white" stroke="#812BEA" stroke-width="2" stroke-miterlimit="10" stroke-linecap="round" stroke-linejoin="round"/>
<path d="M19.1504 72.52L23.0104 100.38L26.0204 96.83C26.0204 96.83 18.9104 73.18 19.1504 72.52Z" fill="white" stroke="#812BEA" stroke-width="2" stroke-miterlimit="10" stroke-linecap="round" stroke-linejoin="round"/>
<path d="M61.3604 149.76C61.3604 149.76 54.2204 146.65 52.2804 145.3Z" fill="white"/>
<path d="M61.3604 149.76C61.3604 149.76 54.2204 146.65 52.2804 145.3" stroke="#812BEA" stroke-width="2" stroke-miterlimit="10" stroke-linecap="round" stroke-linejoin="round"/>
<path d="M19.7804 125.47C18.3904 125.48 17.0504 125.01 15.9604 124.03C13.0904 121.46 13.0004 116.33 15.7404 112.58C18.4804 108.83 23.0304 107.88 25.8904 110.45C26.4804 110.98 26.9504 111.62 27.3004 112.34L30.2504 115.03C30.1404 112.43 29.1904 110.03 27.3904 108.41C23.6604 105.06 17.7504 106.3 14.1804 111.18C10.6104 116.06 10.7404 122.73 14.4704 126.08C16.7604 128.14 19.8804 128.46 22.7704 127.27L19.7804 125.47Z" fill="white" stroke="#812BEA" stroke-width="2" stroke-miterlimit="10" stroke-linecap="round" stroke-linejoin="round"/>
<path d="M27.1704 130.08C25.1804 130.65 23.1204 130.3 21.5604 128.9C18.6904 126.33 18.6004 121.2 21.3404 117.45C24.0804 113.7 28.6304 112.75 31.4904 115.32C32.1704 115.93 32.6804 116.68 33.0504 117.52L35.8504 119.89C35.7404 117.29 34.7904 114.9 32.9904 113.28C29.2604 109.93 23.3504 111.17 19.7804 116.05C16.2104 120.93 16.3404 127.6 20.0704 130.95C22.6604 133.28 26.3104 133.38 29.5004 131.59L27.1704 130.08Z" fill="white" stroke="#812BEA" stroke-width="2" stroke-miterlimit="10" stroke-linecap="round" stroke-linejoin="round"/>
<path d="M27.3204 60.79C27.3204 60.79 49.0904 35.03 64.9304 22.05C80.7604 9.07996 91.2504 9.70997 95.4804 10.01C99.7104 10.31 106.25 19.35 106.25 19.35C106.25 19.35 101.69 3.27996 90.8304 1.22996C79.9704 -0.830041 60.9204 11.47 54.5304 17.38C48.1404 23.3 30.9004 45.12 25.2404 54.28C19.5904 63.44 10.8004 86.26 10.8004 86.26C10.8004 86.26 21.7404 66.32 27.3204 60.79Z" fill="white" stroke="#812BEA" stroke-width="2" stroke-miterlimit="10" stroke-linecap="round" stroke-linejoin="round"/>
</svg>
