<?xml version="1.0" encoding="utf-8"?>
<!-- Generator: Adobe Illustrator 26.0.1, SVG Export Plug-In . SVG Version: 6.00 Build 0)  -->
<svg version="1.1" id="Layer_1" xmlns="http://www.w3.org/2000/svg" xmlns:xlink="http://www.w3.org/1999/xlink" x="0px" y="0px"
	 viewBox="0 0 765.66 393.76" style="enable-background:new 0 0 765.66 393.76;" xml:space="preserve">
<style type="text/css">
	.st0{fill:#FFFFFF;stroke:#812BEA;stroke-width:2;stroke-linecap:round;stroke-linejoin:round;stroke-miterlimit:10;}
	.st1{fill:#FFFFFF;stroke:#812BEA;stroke-width:2;stroke-miterlimit:10;}
	.st2{fill:#FFFFFF;}
	.st3{font-family:'Lato-Bold';}
	.st4{font-size:30.6984px;}
	.st5{font-family:'Lato-Black';}
	.st6{font-size:19.7346px;}
	.st7{font-family:'Lato-Semibold';}
	.st8{fill:#FFFFFF;stroke:#705ABF;stroke-miterlimit:10;}
</style>
<g>
	<g>
		<g>
			<path class="st0" d="M311.08,255.74c0,0-33.04,16.03-62.46,23.4"/>
			<path class="st0" d="M260.48,283.36c-1.33,0.55-2.66,1.08-3.98,1.57"/>
			<path class="st0" d="M294.95,264.99c-7.67,4.82-20.19,12.23-32.6,17.58"/>
		</g>
		<path class="st0" d="M302.45,260.11c0,0-1.91,1.32-5.14,3.39"/>
	</g>
	<g>
		<path class="st0" d="M201.76,189.16c0,0,12.47-4.36,22.47-6.57c10-2.21,19.58-5.98,23.93-12.51c4.34-6.53,12.83-20.49,11.66-27.37
			c-1.17-6.88-8.86-9.26-20.78-0.02c-11.92,9.24-27.18,29.46-32.64,36.41C200.95,186.05,199.34,188.67,201.76,189.16z"/>
		<path class="st0" d="M238.49,147.76c0,0-7.2,5.81-15.27,10.71c-8.07,4.9-2.14,16.53,6.68,17.83c8.81,1.3,10.9-3.07,13.07-11.2
			s2.64-19.39,0.2-19C240.73,146.48,238.49,147.76,238.49,147.76z"/>
		<path class="st0" d="M242.45,158.68c0,0-1.82,7.25-4.9,11.83s-6.45,6.82-18.78,9.53c-12.33,2.71-14,3.34-15.16,10.94
			c-1.16,7.6,4.97,44.87,4.97,44.87l2.4,26.25c0,0,14.15,4.62,31.05,5s29.56-2.33,30.56-2.64s24.7-7.41,26.72-9.02
			c2.03-1.61,6.08-5.17,6.08-5.17s-14.1-21.86-16.89-30.88c-2.78-9.01-8.04-26.04-13.17-33.78c-5.13-7.74-15-11.27-16.95-12.98
			s-9.4-9.49-10.67-12.17S242.45,158.68,242.45,158.68z"/>
		<path class="st0" d="M240.56,167.38c0,0,0.73,8.56,2.89,15.31c2.16,6.75,6.49,9.38,6.49,9.38l5.4-4.04c0,0-2.86-6.3-6.65-12.62
			c-3.79-6.32-5.73-10.32-5.73-10.32S240.39,164.84,240.56,167.38z"/>
		<path class="st0" d="M275.39,212.69c0,0,4.3,6.25,4.45,11.47c0.15,5.21-9.49,21.58-16.49,23.08c-7,1.5-13.66-11.91-10.45-22.11
			S269.62,205.51,275.39,212.69z"/>
		<path class="st0" d="M259.62,224.16c0,0,5.9-5.87,10.12-8.32c4.21-2.45,8.36-2.12,8.36-2.12l1.44,2.78l6.59-0.29
			c0,0-6.33-6.38-12.08-7.43c-5.75-1.05-10.3,6.24-11.26,7.83C261.84,218.2,259.62,224.16,259.62,224.16z"/>
		<path class="st0" d="M234.68,254.24c11.19-11.02,25.2-2.63,25.2-2.63l-37.93-72.2c8.89-2.64,2.08,0.13-5.93,0.84
			c-11.1,0.98-19.72,10.23-19.14,11.68c2.76,6.86,16.18,56.7,16.61,59.36C216.08,248.53,229.03,259.81,234.68,254.24z"/>
		<path class="st1" d="M205.24,236.76c0,0,15.51-26.51,29.35-37.48c13.84-10.97,31.98-21.83,31.98-21.83l10.17,4.87
			c0,0,7.15,21.38,8.1,23.39c0.95,2.01,2.78,12.66,2.78,12.66s-6.67,4.37-11.69,4.39c-3.98,0.01,7.42,17.33,3.67,22.22
			s-29.34-4.89-36.43,0.92c-7.09,5.81-21.77,9.79-21.77,9.79s-14.05-9.26-16.32-11.64c-2.27-2.37-3.89-4.06-3.89-4.06L205.24,236.76
			z"/>
		<path class="st0" d="M206.83,245.55c2.62-4.36,13.08-21.3,24.87-34.19c13.65-14.91,27.12-21.91,31.96-25.92
			c3.76-3.12,9.35-2.36,14-0.33c-0.57-1.7-0.94-2.79-0.94-2.79l-9.2-4.41l-1.77,0.03c-3.66,2.23-19.07,11.75-31.18,21.35
			c-13.84,10.97-29.35,37.48-29.35,37.48l-4.05,3.23c0,0,1.62,1.69,3.89,4.06C205.42,244.41,206.04,244.93,206.83,245.55z"/>
		<g>
			<path class="st0" d="M273.09,196.02c1.8,4.24,3.48,8.4,3.73,9.59"/>
			<path class="st0" d="M268.44,185.31c0,0,1.85,4.17,3.81,8.75"/>
			<path class="st0" d="M269.11,203.33c0.07,1.32,0.11,2.42,0.09,3.13"/>
			<path class="st0" d="M267.79,186.94c0,0,0.78,8.14,1.18,14.13"/>
		</g>
		<g>
			<g>
				<path class="st0" d="M280.52,163.87c0,0-4.33,6.53-5.64,10.34c-1.31,3.81-4.36,7.75-8.44,10.63c-4.08,2.88-8.84,5.04-14.04,3.88
					c-5.21-1.16-8.97-12.41-10.13-15.23c-1.16-2.82-2.44-7.91-2.34-12.26c0.1-4.36,1.28-10.44,3.77-12.65
					c2.49-2.21,18.06-3.96,27.13-3.93c9.07,0.03,10.39,3.55,10.68,5.99S281.26,161.79,280.52,163.87z"/>
				<path class="st0" d="M257.84,179.42"/>
				<path class="st0" d="M266.5,174.38"/>
				<path class="st0" d="M253.67,178.63"/>
				<path class="st0" d="M260.88,183.85"/>
				<path class="st0" d="M253.43,166.06"/>
				<path class="st0" d="M260.17,168.83"/>
				<path class="st0" d="M254.37,162.77"/>
				<path class="st0" d="M261.97,166.42"/>
				<path class="st0" d="M274.56,172.81"/>
				<path class="st0" d="M269.53,171.83"/>
				<path class="st0" d="M275.5,169.87"/>
				<path class="st1" d="M266.67,167.85"/>
				<path class="st1" d="M267.75,164.71"/>
			</g>
			<path class="st0" d="M279.21,136.45c0,0-0.46,12.9-2.81,16.51s-8.32,5.22-14.6,5.26c-6.28,0.03-17.88-3.89-17.88-3.89
				s-1.24,1.02-2.45,0.29c-1.21-0.72-2.92-1.98-2.92-1.98s-1.33-3.17-1.66-3.7c-0.34-0.53,0.87-7.66,13.03-13.32
				c12.16-5.66,22.27-5.26,24.7-4.51C277.04,131.87,279.21,136.45,279.21,136.45z"/>
			<path class="st0" d="M278.15,136.78c0,0,0.59,12.75-1.12,18.82c-1.7,6.07,0.83,9.61,2.03,10.69c1.2,1.07,5.58,0.3,6.72-4.21
				c1.15-4.51,1.38-15.15-0.78-19.91c-2.16-4.76-5.06-7.79-5.94-7.63C278.2,134.68,278.15,136.78,278.15,136.78z"/>
			<path class="st0" d="M242.98,157.45c0,0-0.55-6.47-3.17-6.7c-2.61-0.23-3.44,5.68-2.82,9.01c0.62,3.33,4.46,3.59,4.46,3.59"/>
		</g>
		<g>
			<path class="st0" d="M237.6,243.32c0,0-7.05-5.9-10.77-4.96c-3.71,0.94-9.01,8.42-9.03,9.44c-0.02,1.03,3.45,1.72,10.01,1.86
				c6.56,0.15,15.22-1.71,15.87-2.93C244.33,245.52,237.6,243.32,237.6,243.32z"/>
			<g>
				<path class="st0" d="M283.43,221.97c0,0-2.41-2.52-7.79-0.38c-5.38,2.14-6.9,5.59-7.32,6.2c-0.42,0.61-4.93,0.3-7.25,3.12
					c-2.32,2.82-2,6.93-0.4,8.82c1.6,1.88,2.39,3.13,2.39,3.13s-1.47,1.4,0.94,3.92c2.41,2.52,20.65,3.54,26.11-2.29
					c5.47-5.83,4.75-10.77,1.59-15.97C288.53,223.31,283.43,221.97,283.43,221.97z"/>
				<path class="st0" d="M281.9,217.01c0,0-1.47,1.4-1.33,4.28c0.14,2.88,1.95,4.76,1.95,4.76s-4.27-1.94-4.3-0.3
					c-0.04,1.64,0.34,3.29,0.34,3.29s-3.62-3.16-3.25-1.3c0.37,1.86,0.37,1.86,0.37,1.86s-2.87-0.27-3.1,1.16
					c-0.24,1.43,0.36,2.27,0.36,2.27s1.41,1.26,0.75,3.3c-0.66,2.04-2.32,2.82-3.15,3.01c-0.83,0.19-2.12,3.24-1.94,4.27
					c0.18,1.03,7.05,6.11,9.71,6.17c2.67,0.06,5.52,0.74,10.28-0.8c4.75-1.54,8.63-9.66,8.74-14.58c0.11-4.92-3.09-8.69-5.72-10.59
					c-2.63-1.91-4.02-3.78-3.98-5.42c0.04-1.64-2.2-2.51-2.24-0.67c-0.04,1.85-0.06,2.67-0.06,2.67S282.94,216.41,281.9,217.01z"/>
				<path class="st0" d="M273.49,235.08c0,0-0.33-3.7-1.79-2.5c-1.46,1.2-0.27,2.87-1.94,4.06c-1.67,1.19-4.36,2.16-2.74,3.43
					C268.63,241.34,273.41,238.78,273.49,235.08z"/>
			</g>
			<path class="st0" d="M291.31,246.15c0,0,6.16-0.07,5.63,5.26c-0.53,5.32-2.99,5.27-11.03,6.73s-13.16,1.35-20.58,2.62
				c-7.42,1.27-16.47,2.3-23.65,2.14s-18.93-6.78-19.5-9.26c-0.56-2.48,0.53-5.32,5.08-7.07c4.55-1.75,12.31,0.07,20.89,2.11
				c8.57,2.04,14.09,2.98,19.87,1.67C273.8,249.05,287.2,246.06,291.31,246.15z"/>
			<path class="st0" d="M267.06,256.9c0,0,7.87-3.11,9.62-8.2c1.75-5.09-3.69-9.32-7.2-8.57c-3.51,0.74-6.21,2.32-7.87,3.31
				c-1.66,0.99-3.71,0.94-3.71,0.94s-8.36-2.24-10.83-2.29c-2.46-0.05-4.49-0.92-5.51-1.35c-1.02-0.43-3.26-1.1-4.93,0.1
				c-1.67,1.19-2.52,2.41-1.92,3.45c0.59,1.04,1.23,0.23,1.23,0.23s0.59,1.04,1.6,1.68c1.01,0.64,3.07,0.48,3.07,0.48
				s3.61,3.77,8.89,6.15c5.28,2.37,10.99,4.35,12.42,4.38S267.06,256.9,267.06,256.9z"/>
		</g>
		<g>
			<g>
				<path class="st0" d="M251.98,262.83c0.03-1.31-2.26-1.36-4.69-2.73c-1.51-0.85-5.83-2.7-8.9-3.99c0.9,0.35,1.73,0.66,2.09,0.73
					c0.98,0.19,2.62-0.11,3.95-0.73c1.32-0.63,0.35-1.14-0.46-1.32c-0.82-0.18-8.4-5.43-9.37-5.94c-0.97-0.51-12.76-0.77-12.76-0.77
					s-1.97,0.12-2.92-1.21c-0.95-1.33-20.39-18.64-20.39-18.64l6.27-8.58l-7.27-25.84c-5.96,10.7-17.84,35.01-17.76,37.94
					c0.09,3.44,7.99,9.19,12.99,12.74c5,3.55,24.56,15.29,24.56,15.29s2.57,2.51,3.05,3.02c0.48,0.5,5.46,5.2,8.37,6.58
					c2.92,1.38,5.67,3.08,6.81,3.26c1.14,0.19,4.59-0.06,4.59-0.06s1.79,0.53,2.45,0.55c0.66,0.01,1.49-0.62,1.84-1.76
					c0.35-1.14-9.52-6.6-9.52-6.6s2.92,1.38,4.69,2.56c1.78,1.19,6.8,3.59,7.62,3.61c0.82,0.02,2.48-0.93,1.85-1.93
					c-0.63-1-10.34-6.46-11.29-8.12c0,0,9.91,3.66,10.73,3.68C249.32,264.58,251.95,264.14,251.98,262.83z"/>
				<path class="st0" d="M197.92,195.33l3.86,27.86l3.01-3.55C204.79,219.64,197.68,195.99,197.92,195.33z"/>
				<path class="st0" d="M240.13,272.57c0,0-7.14-3.11-9.08-4.46"/>
			</g>
			<g>
				<path class="st0" d="M198.55,248.28c-1.39,0.01-2.73-0.46-3.82-1.44c-2.87-2.57-2.96-7.7-0.22-11.45
					c2.74-3.75,7.29-4.7,10.15-2.13c0.59,0.53,1.06,1.17,1.41,1.89l2.95,2.69c-0.11-2.6-1.06-5-2.86-6.62
					c-3.73-3.35-9.64-2.11-13.21,2.77c-3.57,4.88-3.44,11.55,0.29,14.9c2.29,2.06,5.41,2.38,8.3,1.19L198.55,248.28z"/>
				<path class="st0" d="M205.94,252.89c-1.99,0.57-4.05,0.22-5.61-1.18c-2.87-2.57-2.96-7.7-0.22-11.45
					c2.74-3.75,7.29-4.7,10.15-2.13c0.68,0.61,1.19,1.36,1.56,2.2l2.8,2.37c-0.11-2.6-1.06-4.99-2.86-6.61
					c-3.73-3.35-9.64-2.11-13.21,2.77c-3.57,4.88-3.44,11.55,0.29,14.9c2.59,2.33,6.24,2.43,9.43,0.64L205.94,252.89z"/>
			</g>
		</g>
		<path class="st0" d="M206.09,183.6c0,0,21.77-25.76,37.61-38.74c15.83-12.97,26.32-12.34,30.55-12.04
			c4.23,0.3,10.77,9.34,10.77,9.34s-4.56-16.07-15.42-18.12c-10.86-2.06-29.91,10.24-36.3,16.15c-6.39,5.92-23.63,27.74-29.29,36.9
			c-5.65,9.16-14.44,31.98-14.44,31.98S200.51,189.13,206.09,183.6z"/>
	</g>
</g>
<g>
	<text transform="matrix(1.0658 0 0 1 376.4175 156.0922)" class="st2 st3 st4">AMMA in Need</text>
</g>
<text transform="matrix(1.0658 0 0 1 376.314 189.5287)"><tspan x="0" y="0" class="st2 st5 st6">A</tspan><tspan x="14.54" y="0" class="st2 st7 st6">nalytics &amp; </tspan><tspan x="0" y="24.12" class="st2 st5 st6">M</tspan><tspan x="18.53" y="24.12" class="st2 st7 st6">achine-Learning for </tspan><tspan x="0" y="48.24" class="st2 st5 st6">M</tspan><tspan x="18.53" y="48.24" class="st2 st7 st6">aternity </tspan><tspan x="0" y="72.36" class="st2 st5 st6">A</tspan><tspan x="14.54" y="72.36" class="st2 st7 st6">pplications</tspan></text>
<path class="st8" d="M341.65,114.24L341.65,114.24c0.28,0,0.5,0.22,0.5,0.5v170.23c0,0.28-0.22,0.5-0.5,0.5l0,0
	c-0.28,0-0.5-0.22-0.5-0.5V114.74C341.15,114.46,341.37,114.24,341.65,114.24z"/>
</svg>
